<svg xmlns="http://www.w3.org/2000/svg" width="2400" height="1547" fill="none" viewBox="0 0 2400 1547"><path fill="url(#paint0_linear)" d="M0 0H1499.92L1600.4 206.98C1617.92 243.055 1606.02 286.523 1572.57 308.645L900.287 753.278C886.601 762.33 871.203 768.479 855.047 771.344L0 923V0Z"/><path fill="url(#paint1_linear)" fill-opacity=".35" d="M17.5706 1412.73L844.189 876.708C872.195 858.547 879.996 821.021 861.548 793.204L753.905 630.893C740.729 611.024 717.039 600.842 693.556 604.953L-471.149 808.832C-517.616 816.966 -536.954 873.069 -505.369 908.107L-59.6396 1402.57C-39.8974 1424.47 -7.1685 1428.78 17.5706 1412.73Z" opacity=".3"/><path fill="url(#paint2_linear)" fill-opacity=".25" d="M1528.6 -729.752L868.878 1.95474C846.527 26.745 848.705 65.0109 873.724 87.1057L1019.71 216.027C1037.58 231.808 1063.1 235.512 1084.71 225.463L2156.97 -272.917C2199.74 -292.8 2203.9 -351.997 2164.33 -377.666L1605.81 -739.913C1581.07 -755.958 1548.34 -751.65 1528.6 -729.752Z" opacity=".3"/><path fill="url(#paint3_linear)" d="M2662 424V1235L2132.18 965.69C2092.46 945.498 2076.89 896.744 2097.56 857.267L2244.5 576.613C2254.42 557.665 2271.51 543.478 2291.96 537.22L2662 424Z"/><defs><linearGradient id="paint0_linear" x1="1132.2" x2="1132.2" y1="0" y2="902.446" gradientUnits="userSpaceOnUse"><stop stop-color="#225FF2"/><stop offset="1" stop-color="#34A7FC"/></linearGradient><linearGradient id="paint1_linear" x1="331.441" x2="69.768" y1="1310.71" y2="591.768" gradientUnits="userSpaceOnUse"><stop stop-color="#fff"/><stop offset="1" stop-color="#fff" stop-opacity="0"/></linearGradient><linearGradient id="paint2_linear" x1="1251.83" x2="1690.66" y1="-549.969" y2="76.75" gradientUnits="userSpaceOnUse"><stop stop-color="#fff"/><stop offset="1" stop-color="#fff" stop-opacity="0"/></linearGradient><linearGradient id="paint3_linear" x1="2568.49" x2="2568.49" y1="1104" y2="201.554" gradientUnits="userSpaceOnUse"><stop stop-color="#225FF2"/><stop offset="1" stop-color="#34A7FC"/></linearGradient></defs></svg>